<?xml version="1.0" encoding="iso-8859-1"?>
<!-- Generator: Adobe Illustrator 19.0.0, SVG Export Plug-In . SVG Version: 6.00 Build 0)  -->
<svg version="1.1" id="Layer_1" xmlns="http://www.w3.org/2000/svg" xmlns:xlink="http://www.w3.org/1999/xlink" x="0px" y="0px"
	 viewBox="0 0 512 512" style="enable-background:new 0 0 512 512;" xml:space="preserve">
<circle style="fill:#334D5C;" cx="256" cy="256" r="256"/>
<path style="opacity:0.1;enable-background:new    ;" d="M512,256c0-12.081-0.898-23.948-2.517-35.584L401.547,112.48
	c-1.226-1.92-3.36-3.147-5.814-3.147H189.92c-3.84,0-6.933,3.093-6.933,6.933v16.159l-12.641-12.64l-0.48-0.426v-0.053
	c-6.453-6.133-15.147-9.973-24.8-9.973c-19.733,0-35.733,16-35.733,35.786c0,9.386,3.626,18.027,9.6,24.373l29.706,29.706
	c-4.267,5.867-6.72,13.014-6.72,20.747c0,10.453,4.48,19.84,11.627,26.347h-44.213v156.373l106.101,106.102
	C228.651,510.873,242.192,512,256,512C397.385,512,512,397.385,512,256z"/>
<rect x="109.333" y="276.771" style="fill:#3EA69B;" width="262.615" height="125.896"/>
<path style="fill:#44C4A1;" d="M118.883,377.672v-75.905c8.836,0,16-7.164,16-16h211.529c0,8.836,7.164,16,16,16v75.905
	c-8.836,0-16,7.164-16,16H134.883C134.883,384.835,127.72,377.672,118.883,377.672z"/>
<g>
	<ellipse style="fill:#3EA69B;" cx="240.635" cy="339.729" rx="36.021" ry="42.938"/>
	<ellipse style="fill:#3EA69B;" cx="342.667" cy="339.729" rx="8.149" ry="7.675"/>
	<ellipse style="fill:#3EA69B;" cx="138.625" cy="339.729" rx="8.149" ry="7.675"/>
</g>
<path style="fill:#44C4A1;" d="M238.701,374.304v-6.091c-8.097-0.777-15.365-3.809-21.796-9.093l6.468-7.258
	c4.96,4.06,10.065,6.478,15.328,7.258v-16.189c-6.676-1.501-11.565-3.477-14.665-5.925c-3.1-2.448-4.65-6.077-4.65-10.889
	c0-4.81,1.781-8.746,5.357-11.808c3.576-3.059,8.226-4.726,13.958-5.004v-4.173h5.667v4.254c6.496,0.448,12.639,2.532,18.428,6.26
	l-5.76,7.676c-3.9-2.615-8.119-4.227-12.668-4.842v15.685h0.267c6.792,1.504,11.781,3.534,14.968,6.091
	c3.194,2.56,4.787,6.274,4.787,11.14c0,4.869-1.831,8.834-5.494,11.89c-3.663,3.063-8.5,4.729-14.528,5.008v6.006h-5.668V374.304z
	 M232.45,320.447c-1.507,1.249-2.256,2.807-2.256,4.672c0,1.864,0.592,3.338,1.774,4.421c1.175,1.086,3.425,2.129,6.734,3.13
	v-14.436C236.041,318.457,233.957,319.194,232.45,320.447z M251.102,357.033c1.651-1.277,2.48-2.89,2.48-4.839
	c0-1.946-0.649-3.491-1.947-4.631c-1.305-1.141-3.727-2.21-7.268-3.211v15.017C247.202,359.094,249.444,358.313,251.102,357.033z"/>
<rect x="109.333" y="246.292" style="fill:#3EA69B;" width="262.615" height="125.896"/>
<path style="fill:#44C4A1;" d="M118.883,347.214v-75.905c8.836,0,16-7.164,16-16h211.529c0,8.836,7.164,16,16,16v75.905
	c-8.836,0-16,7.164-16,16H134.883C134.883,354.377,127.72,347.214,118.883,347.214z"/>
<g>
	<ellipse style="fill:#3EA69B;" cx="240.635" cy="309.26" rx="36.021" ry="42.938"/>
	<ellipse style="fill:#3EA69B;" cx="342.667" cy="309.26" rx="8.149" ry="7.675"/>
	<ellipse style="fill:#3EA69B;" cx="138.625" cy="309.26" rx="8.149" ry="7.675"/>
</g>
<path style="fill:#44C4A1;" d="M238.701,343.846v-6.091c-8.097-0.777-15.365-3.809-21.796-9.093l6.468-7.258
	c4.96,4.06,10.065,6.478,15.328,7.258v-16.189c-6.676-1.501-11.565-3.477-14.665-5.925c-3.1-2.448-4.65-6.077-4.65-10.889
	c0-4.811,1.781-8.746,5.357-11.808c3.576-3.059,8.226-4.726,13.958-5.004v-4.173h5.667v4.254c6.496,0.448,12.639,2.532,18.428,6.26
	l-5.76,7.676c-3.9-2.615-8.119-4.227-12.668-4.842v15.685h0.267c6.792,1.504,11.781,3.534,14.968,6.091
	c3.194,2.56,4.787,6.274,4.787,11.14c0,4.869-1.831,8.834-5.494,11.89c-3.663,3.063-8.5,4.729-14.528,5.008v6.006h-5.668V343.846z
	 M232.45,289.989c-1.507,1.249-2.256,2.807-2.256,4.672c0,1.864,0.592,3.338,1.774,4.421c1.175,1.086,3.425,2.129,6.734,3.13
	v-14.436C236.041,287.999,233.957,288.735,232.45,289.989z M251.102,326.575c1.651-1.277,2.48-2.89,2.48-4.839
	c0-1.946-0.649-3.491-1.947-4.631c-1.305-1.141-3.727-2.21-7.268-3.211v15.017C247.202,328.635,249.444,327.854,251.102,326.575z"/>
<ellipse style="fill:#FCD462;" cx="145.063" cy="145.115" rx="35.74" ry="35.771"/>
<ellipse style="fill:#F6C358;" cx="145.063" cy="145.115" rx="29.776" ry="29.797"/>
<path style="fill:#DC8744;" d="M143.844,168.284v-4.083c-5.109-0.521-9.695-2.554-13.753-6.096l4.081-4.867
	c3.13,2.723,6.351,4.344,9.673,4.867v-10.853c-4.213-1.006-7.298-2.331-9.254-3.972c-1.956-1.642-2.934-4.075-2.934-7.3
	c0-3.226,1.124-5.864,3.38-7.917c2.256-2.051,5.191-3.169,8.808-3.355v-2.798h3.576v2.852c4.099,0.3,7.975,1.698,11.629,4.198
	l-3.635,5.147c-2.461-1.753-5.123-2.834-7.994-3.246v10.517h0.169c4.285,1.008,7.434,2.37,9.445,4.083
	c2.016,1.717,3.021,4.206,3.021,7.469c0,3.265-1.155,5.923-3.467,7.972c-2.311,2.053-5.364,3.171-9.168,3.357v4.027h-3.577V168.284z
	 M139.899,132.175c-0.951,0.838-1.424,1.882-1.424,3.132c0,1.25,0.373,2.237,1.119,2.964c0.742,0.728,2.161,1.427,4.249,2.099
	v-9.679C142.165,130.841,140.85,131.334,139.899,132.175z M151.669,156.704c1.042-0.856,1.565-1.938,1.565-3.244
	c0-1.304-0.409-2.34-1.228-3.105c-0.824-0.765-2.352-1.482-4.586-2.153v10.069C149.207,158.086,150.623,157.563,151.669,156.704z"/>
<ellipse style="fill:#FCD462;" cx="177.656" cy="219.948" rx="35.74" ry="35.771"/>
<ellipse style="fill:#F6C358;" cx="177.656" cy="219.948" rx="29.776" ry="29.797"/>
<path style="fill:#DC8744;" d="M176.433,243.16v-4.083c-5.109-0.521-9.695-2.554-13.753-6.096l4.081-4.867
	c3.13,2.723,6.351,4.344,9.673,4.867v-10.853c-4.213-1.006-7.298-2.331-9.254-3.972c-1.956-1.642-2.934-4.075-2.934-7.3
	c0-3.226,1.124-5.864,3.38-7.917c2.256-2.051,5.191-3.169,8.808-3.355v-2.798h3.576v2.852c4.099,0.3,7.975,1.698,11.629,4.198
	l-3.635,5.147c-2.461-1.753-5.123-2.834-7.994-3.246v10.517h0.169c4.285,1.008,7.434,2.37,9.445,4.083
	c2.016,1.717,3.021,4.206,3.021,7.469c0,3.265-1.155,5.923-3.467,7.972c-2.311,2.053-5.364,3.171-9.168,3.357v4.027h-3.577V243.16z
	 M172.489,207.051c-0.951,0.837-1.424,1.882-1.424,3.132s0.373,2.238,1.119,2.964c0.742,0.728,2.161,1.427,4.249,2.099v-9.679
	C174.754,205.717,173.44,206.211,172.489,207.051z M184.258,231.581c1.042-0.856,1.565-1.938,1.565-3.244
	c0-1.304-0.409-2.34-1.228-3.105c-0.824-0.765-2.352-1.482-4.586-2.153v10.069C181.797,232.963,183.211,232.439,184.258,231.581z"/>
<path style="fill:#EBF0F3;" d="M395.75,109.333H189.902c-3.82,0-6.917,3.097-6.917,6.917v135.725c0,3.82,3.097,6.917,6.917,6.917
	h151.675c1.835,0,3.594,0.728,4.892,2.026l25.765,25.765c4.357,4.357,11.807,1.271,11.807-4.891v-15.982
	c0-3.82,3.097-6.917,6.917-6.917h4.792c3.82,0,6.917-3.097,6.917-6.917V116.25C402.667,112.43,399.57,109.333,395.75,109.333z"/>
<rect x="201.917" y="216.375" style="fill:#E56353;" width="24.177" height="29.942"/>
<rect x="234.49" y="171.844" style="fill:#27A2DB;" width="24.177" height="74.479"/>
<rect x="267.042" y="149.094" style="fill:#44C4A1;" width="24.177" height="97.208"/>
<rect x="299.625" y="193.656" style="fill:#FCD462;" width="24.177" height="52.682"/>
<rect x="201.917" y="240.052" style="fill:#D15241;" width="24.177" height="6.26"/>
<rect x="234.49" y="240.052" style="fill:#2D93BA;" width="24.177" height="6.26"/>
<rect x="267.042" y="240.052" style="fill:#3EA69B;" width="24.177" height="6.26"/>
<rect x="299.625" y="240.052" style="fill:#F6C358;" width="24.177" height="6.26"/>
<path style="fill:#E56353;" d="M213.995,170.356v-4.266c-5.341-0.545-10.134-2.668-14.376-6.368l4.266-5.083
	c3.272,2.844,6.639,4.536,10.11,5.083v-11.338c-4.404-1.051-7.628-2.435-9.673-4.149c-2.045-1.715-3.068-4.256-3.068-7.626
	c0-3.37,1.175-6.125,3.533-8.27c2.358-2.143,5.426-3.31,9.207-3.505v-2.922h3.737v2.979c4.284,0.314,8.336,1.774,12.155,4.384
	l-3.8,5.376c-2.573-1.831-5.355-2.96-8.356-3.391v10.985h0.176c4.48,1.053,7.771,2.475,9.873,4.266
	c2.107,1.793,3.157,4.394,3.157,7.802c0,3.409-1.208,6.188-3.624,8.327c-2.416,2.145-5.607,3.312-9.582,3.507v4.206H213.995z
	 M209.872,132.636c-0.994,0.875-1.489,1.967-1.489,3.272c0,1.305,0.39,2.338,1.17,3.096c0.775,0.76,2.259,1.491,4.442,2.193v-10.11
	C212.24,131.243,210.866,131.758,209.872,132.636z M222.174,158.259c1.089-0.894,1.636-2.024,1.636-3.389
	c0-1.362-0.428-2.445-1.284-3.244c-0.86-0.799-2.458-1.548-4.794-2.249v10.518C219.601,159.703,221.08,159.156,222.174,158.259z"/>
<rect x="326.302" y="125.229" style="fill:#27A2DB;" width="8.096" height="8.096"/>
<rect x="326.302" y="136.688" style="fill:#E56353;" width="8.096" height="8.096"/>
<rect x="326.302" y="148.146" style="fill:#44C4A1;" width="8.096" height="8.096"/>
<g>
	<rect x="340.635" y="138.469" style="fill:#D5D6DB;" width="45.376" height="4.513"/>
	<rect x="340.635" y="127.031" style="fill:#D5D6DB;" width="45.376" height="4.513"/>
</g>
<rect x="326.302" y="159.573" style="fill:#FCD462;" width="8.096" height="8.096"/>
<g>
	<rect x="340.635" y="161.354" style="fill:#D5D6DB;" width="45.376" height="4.513"/>
	<rect x="340.635" y="149.885" style="fill:#D5D6DB;" width="45.376" height="4.513"/>
</g>
<g>
</g>
<g>
</g>
<g>
</g>
<g>
</g>
<g>
</g>
<g>
</g>
<g>
</g>
<g>
</g>
<g>
</g>
<g>
</g>
<g>
</g>
<g>
</g>
<g>
</g>
<g>
</g>
<g>
</g>
</svg>
